<svg enable-background="new 0 0 300 300" viewBox="0 0 300 300" xmlns="http://www.w3.org/2000/svg" xmlns:xlink="http://www.w3.org/1999/xlink"><clipPath id="a"><path d="m0 0h300v300h-300z"/></clipPath><path clip-path="url(#a)" d="m0 0h300v300h-300z" fill="#d946ef"/><circle clip-path="url(#a)" cx="103" cy="116" fill="#22d3ee" r="162"/><circle clip-path="url(#a)" cx="105" cy="168" fill="#fde047" r="96"/><path d="m110.7 143.5c0 6.9-2.5 12.9-7.4 17.8s-10.8 7.4-17.8 7.4c-6.9 0-12.9-2.5-17.8-7.4s-7.4-10.8-7.4-17.8 2.5-12.9 7.4-17.8 10.8-7.4 17.8-7.4c6.9 0 12.9 2.5 17.8 7.4 5 4.9 7.4 10.9 7.4 17.8z"/><path d="m189.8 117.8c-3.3 16.3-6.2 30.5-8.6 42.5s-5.3 24.6-8.6 37.7c-1.6 6.4-4.4 12.7-8.2 18.9s-8.3 11.5-13.5 16c-5.4 4.8-11.3 8.5-17.6 11.1s-12.8 4-19.5 4c-6 0-10.9-.6-14.7-1.8-3.7-1.2-6.7-2.7-8.8-4.6s-3.4-3.9-4.2-6.2c-.7-2.3-1.1-4.5-1.1-6.6 0-3.8 1.4-7.2 4.1-10.2 2.7-2.9 6.4-4.4 11.1-4.4 3.6 0 6.7.9 9.3 2.8s4.8 4.2 6.7 6.8 3.5 5.5 4.9 8.6c1.4 3.2 2.5 5.7 3.3 7.4 2.8-3 5.4-7.6 7.8-13.7s4.7-14.3 6.8-24.5l17.7-84h-19.2l2.4-10.2h19.1l1.7-7.6c1.4-6.2 3.9-12.3 7.6-18.3s8.1-11.3 13.3-16c5-4.6 10.8-8.4 17.4-11.3s13.2-4.4 19.8-4.4c5.8 0 10.5.5 14.3 1.6s6.8 2.6 9 4.5c2 1.8 3.3 3.8 4 6s1 4.4 1 6.6c0 1.5-.3 3.1-.8 4.9-.6 1.8-1.4 3.4-2.6 4.9-1.5 1.7-3 2.9-4.6 3.9-1.6.9-4 1.4-7.1 1.4-3.6 0-6.6-.9-9.2-2.8s-4.8-4.1-6.5-6.7c-1.9-2.7-3.5-5.6-4.9-8.7-1.3-3.1-2.4-5.6-3.3-7.4-2.7 3.1-5.2 7.6-7.3 13.6-2.2 6-4.4 14.2-6.7 24.6l-2.5 11.4h25l-2.4 10.2h-24.4z"/></svg>